<?xml version="1.0" encoding="UTF-8"?>
<svg version="1.1" viewBox="0 0 1224 1084" width="1280" height="1280" xmlns="http://www.w3.org/2000/svg">
<path transform="translate(865,154)" d="m0 0h25l17 4 17 7 14 8 14 10 11 9 12 11 8 8 11 14 12 18 14 27 10 27 7 27 5 28 4 40v68l-2 18-4 15-7 16-10 16-12 14-9 10-10 10-11 9-12 10-18 13-20 13-24 14-26 14-31 15-21 9-7 2v9l-7 34-9 29-8 20-8 18-11 20-14 22-10 14-9 12-12 14-7 8-21 21-2 1 1 9 7 21 9 17 9 12 12 12 14 9 15 7 16 4 6 1 18 1 22-2 27-6 24-8 29-12 33-16 23-12 28-17 16-10 22-15 18-13 12-9 14-11 10-8 13-11 11-9 3-3h2v-2l11-9 9-9 8-7 31-31 5-7 1-3v-9l-3-7-4-5-10-6-13-5-18-4-18-2-20-1-7-1h-17l-21-3-16-4-16-7-10-7-9-8-9-14-5-14-1-5v-30l5-19 8-19 13-25 10-15 7-9 8-9 11-9 10-7 12-5 10-2h20l14 3 14 6 11 7 11 9 12 12 13 17 10 15 14 27 9 24 7 26 5 28 2 21v38l-3 18-9 27-11 23-12 20-13 19-9 12-13 16-9 11-15 16-11 12-12 12-8 7-14 13-22 18-14 11-19 14-27 18-21 13-24 13-17 9-27 12-23 9-21 7-22 5-12 2h-11l-2 1h-9l-5-1-15-1-17-4-20-8-17-11-15-13-9-10-11-15-11-19-9-20-9-27-3-12v-7l-5 3-17 14-13 11-14 11-18 14-19 14-17 12-15 10-19 12-20 12-22 12-22 11-19 8-25 9-20 6-28 6-14 2h-38l-24-4-17-5-18-8-13-8-14-11-7-6-7-8-10-13-5-8-1-3-5 1-36 18-25 10-23 7-21 4-8 1h-19l-16-3-14-6-13-10-10-12-8-15-6-18-4-20-1-9-1-1v-55l4-31 6-37 9-40 9-34-1-8-5-27-3-27v-56l3-29 5-28 7-30 8-26 11-30 13-30 8-16 14-27 9-15 11-17 7-10 2-3h2l-3 9-10 23-13 35-12 36-8 29-6 26-4 21-3 19-2 25v30l3 24 6 21 8 16 5 6 10 5h10l10-4 12-7 13-12 10-11 13-17 10-15 3-3-1 13-5 27-6 25-8 24-8 18-10 16-8 10-10 9-10 6-11 4-6 1h-18l-16-4-13-6-1 8-8 32-5 26-2 16v37l3 16 6 15 6 9 10 9 12 6 14 3h24l22-4 30-10 25-11 5-4-3-19v-53l3-29 6-35 8-35 11-39 11-33 11-28 4-8 3-3 5 1 3 4-1 10-12 34-8 28-6 25-5 26-3 30v42l4 27 6 21 5 12v2l7-3 16-9 16-10 41-25 26-16 19-12 24-15 19-12 20-13 30-20 18-13 11-10 17-13 10-9 4-6 1-5-3-9-9-10-9-8-21-14-22-13-24-13-50-25-23-11-25-12-20-11-11-7-12-9-16-13-10-9-8-7-12-11-31-31-7-8-8-8-7-8-11-11-8-7-9-7-1-3v-14l-1-28v-35l5-5 9 2 26 12 19 9 19 10 52 26 7 6 1 6-4 4-8 3-18 3-16 1 10 9 17 13 13 10 20 14 17 11 15 9 26 15 33 17 25 12 33 14 27 11 14 9 12 11 10 14 8 16 7 21 3 16 1 9v34l-2 19-7 27-7 17-8 15-10 13-5 6-8 7-13 12-14 11-16 13-14 10-15 11-20 14-63 42-20 13-19 12-5 3h-2l1 2 25 7 23 4 8 1h36l29-4 26-6 30-10 24-10 21-10 22-12 25-15 24-16 18-13 11-8 17-13 16-13 10-8 11-9 13-11 6-5 6-32 7-28 9-30 11-30 6-14-2 1-13 1h-29l-26-3-22-5-20-8-11-7-12-11-8-10-6-12-4-13-1-6v-27l5-23 7-19 8-16 6-11 15-22 9-11 9-10 13-13 14-9 12-5 8-2h21l14 3 16 8 11 7 13 11 17 17 11 14 11 15 14 22 13 24 4 7 12-3 29-10 29-12 33-16 26-14 25-15 18-12 17-12 10-7 2-4-2-16-6-12-9-10-13-8-14-6-25-6-24-3-15-1h-79l-18-4-16-8-11-9-9-12-6-13-4-13-3-17v-31l4-17 9-25 10-21 8-14 11-16 11-13 9-9 15-11 13-6zm-19 93-8 3-6 4-4 5-3 7v11l4 7 8 6 12 5 18 4 30 3 24 1h14l-4-6-12-13-7-7-11-9-14-10-19-9-8-2zm-204 287-13 4-6 4-4 5-1 2v10l4 9 7 6 12 5 12 3 9 1h18l23-3 18-4 1-2-7-9-9-10-10-8-14-8-16-5zm414 40-10 5-7 7-3 8 2 8 6 7 14 7 13 3h60l-2-5-9-12-9-9-13-9-17-8-8-2zm-287 95-21 4-21 3-3 8-16 64-8 39v4l4-2 9-7 11-10 8-7 14-14 8-10 8-11 9-16 5-16 1-13-3-11-3-5z" fill="#C3A65D"/>
<path transform="translate(526,157)" d="m0 0h16l10 4 13 10 9 9 7 11 3 9v8l-5 24-5 10-3 1-10-6-12-10-9-5-6-1-8 3-5 6-5 11-4 14-4 29-3 75-3 39-4 28-4 15-5 8-5-1-4-6-9-21-10-20-13-23-11-19-12-19-14-19-11-12-7-5h-3l-4 5-8 6-7 2h-8l-12-5-16-10-11-9-6-8-1-2v-9l5-19 8-19 6-8 5-5 7-4h11l12 4 17 10 14 10 13 11 18 18 13 17 10 15 13 23 8 18 2 5 1-52 2-35 4-32 6-27 6-17 8-15 8-9 8-5z" fill="#C3A65D"/>
<path transform="translate(694,1)" d="m0 0 9 1 12 7 15 10 17 11 45 30 20 14 9 8 2 5-8 23-14 27-13 23-15 26-8 9-6 4-5-2-16-14-18-13-48-32-20-13-11-8-3-5 1-6 13-28 8-16 18-38 8-16 4-5z" fill="#C3A65D"/>
</svg>
